<?xml version="1.0" encoding="UTF-8"?>
<svg id="Layer_2" data-name="Layer 2" xmlns="http://www.w3.org/2000/svg" viewBox="0 0 2590.14 990.66">
  <defs>
    <style>
      .cls-1 {
        fill: #ef0606;
      }

      .cls-2 {
        fill: #ed1c24;
      }
    </style>
  </defs>
  <g id="Layer_1-2" data-name="Layer 1">
    <path class="cls-1" d="M559.45.05q1.73.06,3.51.13c21.18.8,42.17,2.36,63.18,5.12.71.09,1.41.18,2.14.28,52.05,6.87,104.01,20.09,144.86,54.72.82.69,1.63,1.38,2.48,2.09,15.84,13.83,30.36,29.03,41.52,46.91q.98,1.49,1.97,3c10.48,16.31,17.47,34.45,23.47,52.81.4,1.21.8,2.43,1.21,3.68,5.08,16.07,7.93,32.49,9.03,49.29.06.87.12,1.74.18,2.64,2.06,31.12,1.89,62.39,2.16,93.56.09,9.7.19,19.41.29,29.11.18,17.51.35,35.03.52,52.54.2,21.63.41,43.26.63,64.9.07,7.08.14,14.17.21,21.25.19,19.16.39,38.32.59,57.48.09,8.02.17,16.03.26,24.05.02,1.99.04,3.99.06,5.98.28,26.02.47,52.04.57,78.06,0,.99,0,1.98.01,3.01q0,1.48.01,3c.05,12.58.13,25.15.22,37.73.07,9.98.11,19.95.1,29.93,0,6.72.04,13.45.1,20.17.03,3.84.05,7.67.03,11.51-.11,18.69,2.11,33.75,11.37,50.3.39.71.78,1.42,1.19,2.15,2.1,3.75,4.34,7.33,6.81,10.85.55.79,1.1,1.58,1.66,2.39,18.63,25.25,46.37,38.44,76.34,44.61,6.93.99,13.86,1.98,21,3v78q-7.87,1.12-11.67,1.23c-.86.03-1.71.05-2.6.08q-1.37.04-2.78.08c-2.03.07-4.07.13-6.1.2-1.07.04-2.15.07-3.25.11-81.44,2.74-162.43,13.74-312.52,41.71-.86.18-1.72.35-2.61.54-1.58.32-3.15.65-4.72.98q-9,1.86-12.56.25c-.55-.38-1.11-.77-1.68-1.16-.63-.44-1.27-.87-1.92-1.32-.67-.48-1.33-.96-2.02-1.45-.7-.49-1.4-.99-2.12-1.49-15.38-11.03-33.03-25.03-36.45-44.76-.3-4.05-.31-8.09-.28-12.15,0-1.18,0-2.35.01-3.57.15-13.7,1.45-27.28,2.77-40.91,1.76-18.19,2.9-36.09,2.5-54.38-3.6-1.53-6.01-2.26-9.94-1.88-.81.07-1.63.13-2.47.2-6.2,1.62-9.9,5.84-13.6,10.8-.46.6-.92,1.21-1.4,1.83-1.01,1.31-2.01,2.63-3.01,3.95-2.24,2.96-4.51,5.9-6.78,8.83-1.12,1.45-2.23,2.9-3.34,4.35-9.33,12.09-19.48,23.24-30.33,33.98-1.91,1.89-3.82,3.79-5.72,5.7-5.46,5.45-10.92,10.84-16.8,15.84-2.5,2.14-4.86,4.44-7.25,6.71-5.69,5.29-11.76,9.77-18.17,14.14-1.73,1.21-3.42,2.47-5.11,3.74-8.64,6.46-17.66,11.57-27.3,16.41-2.43,1.22-4.85,2.46-7.27,3.7-8.37,4.27-16.76,8.29-25.52,11.71-.77.31-1.54.62-2.33.94-12.94,5.15-26.14,8.83-39.67,12.06q-1.07.26-2.15.52c-13.85,3.26-27.79,4.83-41.97,5.61-.74.04-1.49.08-2.26.12-22.32,1.24-44.66,1.12-66.99.38-.98-.04-1.97-.07-2.98-.1-49.13-2.03-100.38-22.27-139.77-51.03q-1.1-.79-2.22-1.6c-2.23-1.62-4.44-3.25-6.65-4.9-.7-.51-1.4-1.02-2.13-1.55-6.9-5.16-12.98-11.12-19.06-17.2q-.82-.82-1.66-1.66c-8.84-8.84-16.71-18.03-23.69-28.44-1.02-1.5-2.06-2.98-3.12-4.45C5.53,831.43-1.1,775.07.14,720.3c.02-.92.04-1.84.06-2.79.15-6.08.47-12.15.94-18.21.07-.9.14-1.8.21-2.73,3.69-43.06,26.05-87.4,57.49-117.07,2.04-1.96,3.82-3.95,5.61-6.13,4.71-5.52,10.42-10.02,15.99-14.64,1.48-1.23,2.95-2.48,4.42-3.73,14.15-11.88,29.52-22.08,45.28-31.69q1.65-1.02,3.35-2.06c9.15-5.59,18.49-10.69,28.03-15.57.75-.38,1.5-.77,2.27-1.16,25.1-12.84,50.78-24.35,77.13-34.37,1.53-.58,3.06-1.17,4.58-1.75,32.52-12.46,65.58-22.79,98.96-32.63,6.14-1.81,12.28-3.64,18.39-5.56,24.77-7.73,49.98-13.83,75.15-20.13,3.86-.97,7.71-1.93,11.57-2.9,24.06-6.05,48.11-12.09,72.23-17.88.68-.16,1.36-.33,2.07-.5,12.08-2.89,24.18-5.69,36.28-8.5.02-13.75.04-27.49.05-41.24,0-6.39.01-12.78.02-19.17q.58-59.31-3.44-118.42c-.39-3.43-.76-6.86-1.11-10.29-3.01-27.83-8.67-55.28-22.52-79.88-.57-1-1.13-2.01-1.71-3.04-4.26-7.09-9.55-13.03-15.29-18.96-.83-.87-1.65-1.74-2.5-2.63-15.72-14.89-43.38-14.26-63.5-14.37-1.01-.01-2.01-.03-3.04-.04-8.45-.07-16.85.26-25.29.73-2.3.12-4.6.23-6.9.33-11.34.58-21.47,2.32-31.65,7.54-.68.34-1.35.69-2.05,1.04-25.81,13.64-39.82,37.5-49.08,64.39-.21.6-.41,1.2-.63,1.82-5.02,14.72-8.6,29.78-12.2,44.9-.66,2.75-1.32,5.51-1.98,8.26-3.45,14.32-6.81,28.66-10.04,43.03-8.7,38.69-20.43,78.64-55.77,101.37-32.66,19.79-79.33,23.02-115.95,14.1-1.81-.48-3.62-.97-5.43-1.47q-1.2-.33-2.41-.66c-17.19-4.95-32.74-13.93-45.59-26.34-.49-.46-.97-.92-1.47-1.4-18.01-17.38-27.05-42.78-27.53-67.6.03-40.26,14.91-80.04,42-110,1.07-1.41,2.14-2.82,3.19-4.25,5.68-7.4,12.37-14.02,18.81-20.75.78-.82,1.56-1.65,2.36-2.49,5.15-5.31,10.82-9.94,16.64-14.51.63-.5,1.26-.99,1.91-1.51,14.86-11.66,30.19-21.84,46.65-31.11,2.37-1.34,4.72-2.7,7.08-4.07,14.29-8.18,29.21-14.91,44.36-21.32,1.07-.45,2.14-.91,3.24-1.37C328.11,14.06,426.95-1,559.45.05ZM378.64,527.96c-1.85,1.65-3.74,3.24-5.63,4.84-3.62,3.17-7.03,6.55-10.44,9.94q-.8.79-1.61,1.59c-44.76,44.94-68.73,105.92-69.08,169.03.29,44.35,8.71,91.86,40.82,124.53,3.01,2.97,6.17,5.73,9.43,8.41.65.54,1.3,1.09,1.96,1.65,20.48,16.32,42.86,17.32,68.33,15.05,39.23-4.65,72.12-27.37,96.33-57.94,4.56-5.85,9.03-11.76,13.38-17.76.55-.75,1.1-1.51,1.67-2.28,4.6-6.4,8.48-13.07,12.27-19.97,1.23-2.23,2.47-4.45,3.7-6.68.58-1.05,1.17-2.11,1.77-3.2,1.91-3.44,3.87-6.84,5.85-10.25.55-.98,1.1-1.97,1.67-2.98,1.47-2.61,3.02-5.17,4.59-7.72,7.2-12.09,8.91-21.68,8.64-35.58,0-1.99,0-3.98,0-5.98,0-5.36-.05-10.72-.11-16.08-.06-5.67-.06-11.34-.07-17.02-.03-10.77-.1-21.53-.2-32.29-.1-12.09-.15-24.17-.19-36.26-.12-34.66-.27-69.33-1.05-103.98-.02-.86-.04-1.71-.06-2.6-.21-9.52-.52-19.04-.95-28.56-.04-.88-.08-1.77-.11-2.68-.19-4.06-.44-7.94-1.42-11.9-59.36,0-137.08,48.6-179.5,86.66Z"/>
    <path d="M2045.98,569.27c4.43,0,8.86,0,13.29,0,8.62,0,17.25.01,25.87.02,0,.55,0,1.1.01,1.66.1,32.8.21,65.61.32,98.41.01,3.97.03,7.93.04,11.9,0,.79,0,1.58,0,2.39.04,12.67.09,25.34.12,38.01.05,13.07.09,26.13.14,39.2.02,7.31.05,14.62.07,21.93.08,26.71.17,53.42.76,80.13.01.91.03,1.81.05,2.74q-1.55,38.69,8.48,74.62v2c5.41,2.28,11,4,16.58,5.79q1.17.38,2.37.77t2.14.69q1.91.75,4.91,2.75-.31,1.91-1,4c-12.83,6.29-28.6,7.97-42.6,10.27-1.73.29-3.46.58-5.19.86-3.6.6-7.19,1.19-10.78,1.78-4.6.75-9.19,1.52-13.78,2.29-3.56.6-7.12,1.19-10.69,1.77-1.69.28-3.39.56-5.08.85-2.36.4-4.72.78-7.09,1.16-.69.12-1.37.24-2.08.36-4.56.72-8.23.5-12.71-.34-.05-.79-.1-1.58-.15-2.4-.23-3.6-.48-7.19-.72-10.79-.08-1.24-.16-2.49-.24-3.77-.09-1.2-.17-2.41-.26-3.65-.07-1.1-.14-2.21-.22-3.35-.4-2.99-1.16-5.32-2.41-8.05-5.57.33-8,2.51-11.56,6.5-16.07,16.91-39.89,27.95-63.32,28.84-12.34.17-23.41-.28-35.12-4.34-1.04-.35-2.08-.7-3.14-1.06-15.15-5.72-29.85-16.28-39.86-28.94-.71-.88-1.42-1.77-2.15-2.68-20.94-26.95-30.06-58.57-30.85-92.32-.03-.89-.05-1.78-.08-2.7-1.18-41.46,7.12-85.13,35.71-116.77,1.76-1.96,3.43-4,5.12-6.03,15.34-17.1,38.06-28.74,61.14-30.08.78-.03,1.56-.07,2.36-.1q1.25-.05,2.52-.11c28.27-1.07,48.59,9.13,69.23,27.8,1.43,1.4,2.84,2.8,4.25,4.22.71.71,1.41,1.42,2.14,2.15q.8.8,1.61,1.62c.05-14.07.08-28.13.1-42.2.01-6.53.03-13.07.05-19.6.02-6.32.03-12.63.04-18.95,0-2.4.01-4.8.02-7.2q.43-23.98-5.41-47.02-.8-2.04-.8-4.04c-5.74-2.99-11.9-4.71-18.11-6.47-.86-.24-1.71-.49-2.6-.74-1.75-.5-3.51-.98-5.27-1.46-4.65-1.34-7.94-2.35-11.02-6.34,3.16-3.76,5.2-4.42,10-5,24.84-1.72,49.95-1.06,74.84-1.03ZM1925.02,737.74c-15.27,20.29-17.02,43.29-17.5,67.81-.04,1.64-.08,3.28-.12,4.92-.1,4.61-.18,9.22-.26,13.83-.02,1.08-.04,2.17-.05,3.28-.09,6.24-.05,12.47.05,18.72.02,1.25.04,2.51.05,3.8q-.76,47.5,19.95,88.2c9.87,9.1,18.66,11.52,31.8,11.27,13.33-.6,22.7-11.58,31.5-20.54,3.6-3.66,7.29-7.14,11.21-10.46q2.93-2.4,3.8-6c.02-1.17.05-2.34.08-3.55q.02-.98.05-1.97c.06-2.2.1-4.39.14-6.59.03-1.57.07-3.14.1-4.71.32-14.41.49-28.82.62-43.23.1-10.64.28-21.27.54-31.9.18-7.49.28-14.98.31-22.48.02-4.47.08-8.92.24-13.39q1.11-22.09-8.56-41.11c-8.24-8.66-18.32-16.67-29.83-20.34-.62-.2-1.25-.41-1.89-.62-16.54-3-31.22,2.25-42.23,15.05Z"/>
    <path d="M2504.14,702.3q1.34.5,2.71,1.01c16.14,6.53,36.63,19.01,44.44,35.31,6.35,19.94,5.05,42.5,5.6,63.16.12,4.28.24,8.55.36,12.83.04,1.48.08,2.96.13,4.44.02.74.04,1.48.06,2.24.28,9.92.56,19.85.82,29.77.18,6.74.37,13.48.56,20.22.1,3.54.2,7.08.29,10.62.36,14.21.9,28.42,2.06,42.59.11,1.38.21,2.75.3,4.13.13,1.9.3,3.8.47,5.7.08,1.08.17,2.16.26,3.28q.73,2.97,3.85,4.54c3.02,1.12,5.07,1.5,8.27,1.44q1.39-.02,2.81-.03c.95-.02,1.9-.05,2.89-.08.97-.01,1.94-.03,2.95-.04,2.39-.03,4.78-.08,7.17-.15-1.18,8.23-7.5,12.79-13.81,17.62-14.45,10.43-30.36,18.82-48.56,18.69-.84,0-1.68-.01-2.54-.01-9.74-.19-17.22-2.5-25.09-8.3-.66-.47-1.31-.94-1.99-1.42-9.22-7.24-14.92-18.78-19.01-29.58v-2c-1.05.78-2.1,1.57-3.19,2.38-.74.55-1.47,1.1-2.24,1.66-1.81,1.38-3.6,2.8-5.36,4.23-24.91,20.02-60.09,34.92-92.5,33.14-5.95-.66-11.18-2.13-16.71-4.41q-1.73-.71-3.49-1.44c-14.17-6.45-25.97-17.18-31.82-31.87-5.71-17.56-4.67-36.44,2.93-53.28,10.82-21.13,30.07-32.68,50.38-43.41,1.01-.54,2.03-1.09,3.07-1.65,30.9-16,64.91-26.67,97.93-37.35,1.42-8.5,1.3-17.01,1.35-25.6.02-1.99.04-3.98.08-5.97.37-19.14-.83-40.29-14.12-55.34-9.02-8.5-22.72-11.27-34.81-11.12-13.69.51-25.46,2.92-36.62,11.41-2.95,4.12-4.15,7.77-3.68,12.77,1.64,6.89,5.49,12.77,9.22,18.71,5.22,8.42,6.55,16.3,5.58,26.15-2.2,8.01-7.21,14.27-14.04,18.9-10.82,6.07-24.28,6.41-36.19,3.98-8.48-2.69-15.48-8.09-19.77-15.88-5.42-10.55-5.35-21.71-2.5-33.06,6.64-20.51,20.86-34.77,39.5-44.94,34.39-17.5,95.95-19.24,132-4ZM2472.16,825.88c-24.1,8.13-50.79,22.55-62.77,45.82-6.38,13.82-8.8,31.12-3.51,45.64,4.18,10.35,8.95,17.3,19.14,22.4,12.04,2.17,24.45.05,34.71-6.71.8-.57,1.59-1.14,2.41-1.73q1.3-.93,2.63-1.89c7.06-5.36,14.37-11.91,15.65-21.13.71-6.69.87-13.3.85-20.02q0-1.69.01-3.41c0-2.37-.01-4.75-.01-7.12,0-3.59,0-7.17.01-10.76q1.23-20.32-3.14-39.67-2.83-2.4-5.98-1.42Z"/>
    <path d="M1704.14,702.3q1.34.5,2.71,1.01c16.14,6.53,36.63,19.01,44.44,35.31,6.35,19.94,5.05,42.5,5.6,63.16.12,4.28.24,8.55.36,12.83.04,1.48.08,2.96.13,4.44.02.74.04,1.48.06,2.24.28,9.92.56,19.85.82,29.77.18,6.74.37,13.48.56,20.22.1,3.54.2,7.08.29,10.62.36,14.21.9,28.42,2.06,42.59.11,1.38.21,2.75.3,4.13.13,1.9.3,3.8.47,5.7.08,1.08.17,2.16.26,3.28q.73,2.97,3.85,4.54c3.02,1.12,5.07,1.5,8.27,1.44q1.39-.02,2.81-.03c.95-.02,1.9-.05,2.89-.08.97-.01,1.94-.03,2.95-.04,2.39-.03,4.78-.08,7.17-.15-1.18,8.23-7.5,12.79-13.81,17.62-14.45,10.43-30.36,18.82-48.56,18.69-.84,0-1.68-.01-2.54-.01-9.74-.19-17.22-2.5-25.09-8.3-.66-.47-1.31-.94-1.99-1.42-9.22-7.24-14.92-18.78-19.01-29.58v-2c-1.05.78-2.1,1.57-3.19,2.38-.74.55-1.47,1.1-2.24,1.66-1.81,1.38-3.6,2.8-5.36,4.23-24.91,20.02-60.09,34.92-92.5,33.14-5.95-.66-11.18-2.13-16.71-4.41q-1.73-.71-3.49-1.44c-14.17-6.45-25.97-17.18-31.82-31.87-5.71-17.56-4.67-36.44,2.93-53.28,10.82-21.13,30.07-32.68,50.38-43.41,1.01-.54,2.03-1.09,3.07-1.65,30.9-16,64.91-26.67,97.93-37.35,1.42-8.5,1.3-17.01,1.35-25.6.02-1.99.04-3.98.08-5.97.37-19.14-.83-40.29-14.12-55.34-9.02-8.5-22.72-11.27-34.81-11.12-13.69.51-25.46,2.92-36.62,11.41-2.95,4.12-4.15,7.77-3.68,12.77,1.64,6.89,5.49,12.77,9.22,18.71,5.22,8.42,6.55,16.3,5.58,26.15-2.2,8.01-7.21,14.27-14.04,18.9-10.82,6.07-24.28,6.41-36.19,3.98-8.48-2.69-15.48-8.09-19.77-15.88-5.42-10.55-5.35-21.71-2.5-33.06,6.64-20.51,20.86-34.77,39.5-44.94,34.39-17.5,95.95-19.24,132-4ZM1672.16,825.88c-24.1,8.13-50.79,22.55-62.77,45.82-6.38,13.82-8.8,31.12-3.51,45.64,4.18,10.35,8.95,17.3,19.14,22.4,12.04,2.17,24.45.05,34.71-6.71.8-.57,1.59-1.14,2.41-1.73q1.3-.93,2.63-1.89c7.06-5.36,14.37-11.91,15.65-21.13.71-6.69.87-13.3.85-20.02q0-1.69.01-3.41c0-2.37-.01-4.75-.01-7.12,0-3.59,0-7.17.01-10.76q1.23-20.32-3.14-39.67-2.83-2.4-5.98-1.42Z"/>
    <path d="M1211.93,702.22c7.71,7.07,14.71,13.81,15.46,24.73.38,14.45-1.17,26.94-10.95,38.33-7.79,7.36-19.01,8.42-29.27,8.29-8.51-.77-14.06-5.59-20.03-11.27q-13.61-13.95-31.21-20.02c-5.32.33-8.58,1.63-12.79,5.02-.54.38-1.08.75-1.64,1.14-11.05,8.26-15.1,20.84-17.01,33.92-1.44,11.99-1.5,24.06-1.48,36.12,0,1.62,0,3.24-.01,4.86,0,3.38,0,6.77.01,10.15.01,4.22,0,8.44,0,12.66-.02,17.15.1,34.28.58,51.42.02.72.04,1.44.06,2.18q.56,22.6,5.49,44.55c.31,1.18.62,2.35.94,3.56,1.3,2.99,2.17,3.14,5.06,4.44.58.32,1.16.64,1.75.97,4.72,2.54,9.39,3.99,14.56,5.32q9.38,2.48,12.75,5.65c1.15,2.52.71,3.48-.06,6.06-6.06,1.53-11.86,2.39-18.1,2.62-.92.03-1.84.07-2.79.11-14.72.52-29.46.42-44.19.4h-10.53c-17.07.02-34.13.01-51.19-.4-1.97-.05-3.95-.08-5.92-.12-7.2-.21-14.64-.55-21.28-3.61q-1-3-.18-5.35c3.28-3.99,7.49-5.79,12.06-8.09q8.81-4.32,15.12-11.56c.69-3.01,1.07-5.52,1.25-8.56.06-.87.12-1.74.18-2.64.53-8.41.87-16.81,1.11-25.23.02-.77.04-1.53.06-2.32.67-24.9.59-49.82.59-74.73,0-5.48.01-10.97.02-16.45.02-6.06.02-12.12.02-18.18,0-2.52,0-5.05.01-7.57q2.46-37.69-9.24-71.32c-2.55-1.62-5.24-2.79-8-4-2.13-.98-4.26-1.98-6.38-3-1.01-.47-2.03-.95-3.08-1.44-2.68-1.65-3.5-2.65-4.54-5.56,2.13-3.19,3.06-3.73,6.67-4.62,5.38-.88,10.83-.88,16.27-1.01.71-.02,1.41-.04,2.14-.06,27.63-.72,55.29-.4,82.92-.32.03.84.05,1.68.08,2.55.09,3.18.19,6.37.29,9.56.05,1.37.09,2.73.13,4.1.21,7.02.46,14.03.91,21.04.06,1.02.13,2.04.2,3.08.38,2.63,1.05,4.4,2.39,6.68,5.62-4.81,10.84-9.78,15.81-15.25,2.06-2.25,4.13-4.5,6.19-6.75.51-.56,1.02-1.12,1.54-1.69,19.8-21.49,61.04-41.34,87.25-18.39Z"/>
    <path d="M1400.14,693.3c1.07.02,2.14.03,3.24.05,25.65,1.16,49.64,10.97,67.32,29.57,3.68,4.24,6.4,8.16,8.44,13.38.37.78.74,1.57,1.12,2.38,4,9.29,4.74,20.42,1.38,30.06-5.29,10.94-13.55,16.04-24.55,20.37-8.95,2.78-19.63,2.43-27.95-1.81-8.13-5.61-11.8-15.52-13.63-24.94-.5-3.02-.93-6.04-1.37-9.06-.69-4.6-1.4-9.2-2.12-13.79-.31-2.04-.61-4.08-.9-6.12q-1.57-11-5.98-21.09c-2.93-1.89-5.56-2.5-9-3-1.02-.15-2.04-.3-3.09-.45-12.18-1.33-23.23.46-33.07,8.14-21.42,19.82-22.46,54.46-23.72,81.55-.2,6.26-.19,12.51-.12,18.77q.02,1.39.03,2.81c.52,28.59,5.1,55.05,18.97,80.19.62,1.13,1.23,2.26,1.87,3.43,9.9,17.14,23.38,29.09,42.6,34.67,4.93,1.25,9.45,1.81,14.53,1.9.77.02,1.54.05,2.34.07,26.66.8,44.7-9.67,65.8-25.15,2.38-1.18,4.24-1.09,6.86-.93.49,7.15-2.64,10.64-7,16-2.76,3.12-5.65,6.08-8.63,9q-1.18,1.17-2.38,2.36c-9.08,8.86-18.75,16.66-29.99,22.64-1.05.56-2.1,1.13-3.18,1.71-28.56,14.34-65.53,18.45-96.15,8.31-1.89-.66-3.78-1.34-5.67-2.02-1.05-.37-2.1-.74-3.18-1.12-30.4-11.64-53.03-38.45-66.6-67.15-7.7-17.26-12.66-36.79-13.22-55.73-.04-1.28-.08-2.55-.12-3.87-.82-40.01,11.9-78,39.5-107.17,2.34-2.48,4.58-4.91,6.67-7.61,2.25-2.71,4.66-4.58,7.51-6.66.53-.39,1.06-.77,1.61-1.17,1.61-1.17,3.22-2.35,4.83-3.52.88-.69,1.76-1.37,2.67-2.08,11.16-8.58,23.68-14.51,37.33-17.92.7-.17,1.4-.35,2.12-.53,15.04-3.71,29.43-4.79,44.88-4.47Z"/>
    <path d="M2224.25,697.27c3.73,0,7.45,0,11.17,0,7.24,0,14.48.01,21.72.02,0,.61.01,1.22.01,1.84.28,40.2.59,80.4.93,120.6.04,4.66.07,9.32.11,13.98q.27,41.88,1.92,83.73c.1,1.8.19,3.6.28,5.4.53,10.85,2.02,19.49,8.75,28.44,4.35,3.84,9.19,6.44,14.26,9.22,2.64,1.72,4.06,3.14,5.74,5.78q-1.48,3.76-3.75,4.81c-6.34,1.2-12.56,1.62-19,1.81-1.16.03-2.32.07-3.51.11-14.62.42-29.24.42-43.87.4-4.02-.01-8.05,0-12.07,0q-28.26.04-40.62-.51c-.75-.03-1.51-.06-2.29-.09-4.53-.25-8.62-.96-12.89-2.53q-.99-1.49-2-3c2.46-7.38,8.61-9.69,15.07-13.09,5.72-3.08,8.57-6.18,10.55-12.35,7.08-28.81,4.58-61.12,4.91-90.61.04-3.5.09-6.99.13-10.49q.64-38.86-.04-77.71c-.04-1.19-.08-2.37-.13-3.6q.21-21.52-9.19-39.64c-3.78-3.04-7.96-5.2-12.26-7.39-4.53-2.44-6.55-4.78-9.04-9.13,2.13-3.19,3.06-3.73,6.67-4.62,5.38-.88,10.83-.87,16.27-1.01.68-.02,1.37-.03,2.07-.05,16.7-.39,33.4-.37,50.1-.35Z"/>
    <path class="cls-2" d="M2216.14,480.3c2.97,3.58,4.81,7.52,6.81,11.69q5.05,10.36,12.19,19.31c6.17,1.14,11.26-.58,16.84-3.12q2.16-.88,5.16-.88c-2.56,12.01-5.44,23.92-8.54,35.81-1.75,6.85-3.09,13.62-4.04,20.63q-.42,2.56-1.42,4.56c5.79-2.53,9.94-5.5,14.57-9.77,2.67-2.46,5.4-4.83,8.18-7.17q1.32-1.13,2.67-2.28c2.64-1.82,4.43-2.43,7.58-2.78q1.96,5.74,2.38,8.25.49,1.87,2.18,3c7.01,2.16,14.46.17,21.44-1.25.97-.19,1.93-.38,2.93-.58,2.36-.47,4.71-.94,7.07-1.42-1.5,7.26-3.58,14.15-5.96,21.16q-2.1,6.29-2.04,12.84c3.23,4.28,7.85,6.17,12.54,8.53q2.46,1.47,4.46,4.47c-6.84,6.04-13.81,11.72-21.31,16.94-5.87,4.08-11.7,8.19-17.44,12.44q-.98.71-1.99,1.44c-4.55,3.39-8.67,7.01-11.26,12.18-.14,1.43-.23,2.88-.28,4.32q-.06,1.27-.11,2.57c-.07,1.79-.15,3.58-.22,5.38-.03.85-.07,1.69-.11,2.56-.03.78-.06,1.56-.09,2.36q-.19,1.83-1.19,2.83c-9-.15-17.95-2.48-26.72-4.27q-1.66-.33-3.36-.67c-.99-.2-1.99-.41-3.01-.62q-5.57-.95-10.75.67c-1.66,2.71-1.57,4.98-1.66,8.14-.28,5.33-.99,9.06-3.5,13.75-2.47-1.75-3.82-3.23-4.52-6.21-.32-2.68-.55-5.35-.73-8.04q-.12-1.4-.23-2.84c-.19-2.3-.36-4.61-.52-6.91-3.83.65-7.66,1.31-11.48,1.97-1.34.23-2.68.46-4.02.69-9,1.54-17.98,3.15-26.92,4.96-.85.13-1.7.25-2.58.38-1.56-1.56-1.15-3.1-1.18-5.26-.02-.87-.04-1.74-.07-2.64-.04-1.84-.07-3.67-.09-5.51-.22-6.9-1.73-10.7-6.75-15.65-15.82-12.73-32.98-23.76-49.91-34.94,3.06-3.36,6.22-5.43,10.19-7.62q4.11-1.99,6.81-5.38c.58-6.78-.81-12.6-2.57-19.1-1.36-5.17-1.81-9.59-1.43-14.9,4.84.47,9.25,1.31,13.94,2.62q7.62,2.06,15.06.38c2.26-3.13,3.69-6.38,5-10,5.48.3,8.42,3.66,12.25,7.19,5.85,5.24,11.67,10.27,18.75,13.81-.9-13.26-3.6-26.01-6.61-38.92-.16-.68-.31-1.36-.47-2.06-.43-1.86-.87-3.72-1.31-5.58-.63-3.57-.79-6.83-.61-10.45q.5-.49,1-1c3.32.22,6.62.5,9.92.86,3.21.27,5.74.27,8.78-.84,5.87-5.17,9.02-13.11,12.55-19.96.88-1.7,1.76-3.39,2.64-5.09q.57-1.11,1.16-2.24.95-1.73,1.95-2.73Z"/>
  </g>
</svg>